<?xml version="1.0" encoding="UTF-8"?>
<svg width="291px" height="304px" viewBox="0 0 291 304" version="1.1" xmlns="http://www.w3.org/2000/svg" xmlns:xlink="http://www.w3.org/1999/xlink">
    <title>Group</title>
    <g id="Page-1" stroke="none" stroke-width="1" fill="none" fill-rule="evenodd">
        <g id="VS-Logo-linkedin" transform="translate(-53, 0)">
            <g id="Group" transform="translate(53.3333, 0)">
                <path d="M151.800126,196.040478 L183.800126,116.040478 C198.022348,92.9293666 216.689015,79.5960333 239.800126,76.0404777 C262.911237,72.4849221 279.800126,71.5960333 290.466793,73.373811 L197.133459,302.707144 L151.800126,196.040478 Z" id="Path-2" fill="#208989"></path>
                <polygon id="Path-3" fill="#125E5E" points="159.800126 176 197.133459 304 149.133459 200"></polygon>
                <path d="M2.46679277,44.0404777 C7.8001261,58.2626999 42.4667928,144.484922 106.466793,302.707144 L197.133459,302.707144 C142.022348,165.818255 111.800126,91.1515888 106.466793,78.7071444 C98.4667928,60.0404777 82.4667928,62.7071444 87.8001261,81.373811 C93.1334594,100.040478 100.705946,109.627771 101.133459,116.040478 C101.560973,122.453184 95.8001261,129.373811 90.4667928,121.373811 C85.1334594,113.373811 79.8001261,100.040478 74.4667928,92.0404777 C69.1334594,84.0404777 55.8001261,84.0404777 58.4667928,97.373811 C61.1334594,110.707144 77.1334594,140.040478 77.1334594,148.040478 C77.1334594,156.040478 69.1334594,156.040478 63.8001261,150.707144 C58.4667928,145.373811 23.8001261,46.7071444 15.8001261,33.373811 C7.8001261,20.0404777 -5.53320723,22.7071444 2.46679277,44.0404777 Z" id="Path" fill="#21D2D3"></path>
                <path d="M55.5750248,78.6238665 C60.7296825,78.6238665 64.9083582,69.8218557 64.9083582,62.458059 C64.9083582,55.0942623 60.0280195,44.2443869 53.18272,45.4341267 C46.3374205,46.6238665 44.8254544,55.0463978 44.8254544,62.4101945 C44.8254544,69.7739911 50.4203672,78.6238665 55.5750248,78.6238665 Z" id="Oval" fill="#208989" transform="translate(54.8669, 61.9839) rotate(-30) translate(-54.8669, -61.9839)"></path>
                <path d="M78.1287947,58.6666667 C83.2834524,58.6666667 87.462128,43.8555393 87.462128,31.4644924 C87.462128,19.0734454 82.5817893,0.816380315 75.7364898,2.81835325 C68.8911904,4.82032619 67.3792243,18.9929039 67.3792243,31.3839509 C67.3792243,43.7749978 72.974137,58.6666667 78.1287947,58.6666667 Z" id="Oval-Copy" fill="#208989" transform="translate(77.4207, 30.6667) rotate(-23) translate(-77.4207, -30.6667)"></path>
            </g>
        </g>
    </g>
</svg>